<?xml version="1.0" encoding="utf-8"?>
<!-- Generator: Adobe Illustrator 23.0.1, SVG Export Plug-In . SVG Version: 6.00 Build 0)  -->
<svg version="1.1" id="Layer_1" xmlns="http://www.w3.org/2000/svg" xmlns:xlink="http://www.w3.org/1999/xlink" x="0px" y="0px"
	 viewBox="0 0 182.57 43.09" style="enable-background:new 0 0 182.57 43.09;" xml:space="preserve">
<style type="text/css">
	.st0{fill:#D22027;}
	.st1{fill:#0C3148;}
</style>
<g>
	<path class="st0" d="M21.56,43.13C9.67,43.13,0,33.46,0,21.56S9.67,0,21.56,0v9C14.64,9,9,14.64,9,21.56
		c0,6.93,5.64,12.56,12.56,12.56c6.93,0,12.56-5.63,12.56-12.56h9C43.13,33.46,33.46,43.13,21.56,43.13"/>
	<g>
		<path class="st1" d="M38.45,0.3h-0.89c0-0.02-0.01-0.04-0.01-0.07c0-0.03,0-0.05,0-0.08c0-0.02,0-0.05,0-0.07
			c0-0.03,0-0.05,0.01-0.07h2.1c0,0.02,0,0.04,0.01,0.06c0,0.03,0,0.05,0,0.07c0,0.02,0,0.05,0,0.08c0,0.03,0,0.05-0.01,0.07h-0.89
			v3.03c-0.02,0-0.05,0.01-0.07,0.01c-0.03,0-0.06,0-0.08,0c-0.03,0-0.06,0-0.09,0c-0.03,0-0.05,0-0.07-0.01V0.3z"/>
		<path class="st1" d="M40.31,0.01c0.02,0,0.05-0.01,0.09-0.01c0.04,0,0.08,0,0.11,0c0.03,0,0.07,0,0.11,0c0.04,0,0.07,0,0.09,0.01
			l0.93,2.21l0.92-2.21C42.57,0.01,42.6,0,42.64,0c0.04,0,0.08,0,0.11,0c0.03,0,0.07,0,0.11,0c0.04,0,0.07,0,0.09,0.01l0.16,3.31
			c-0.02,0-0.05,0.01-0.07,0.01c-0.03,0-0.06,0-0.08,0c-0.03,0-0.06,0-0.09,0c-0.03,0-0.05,0-0.07-0.01L42.67,0.5l-0.91,2.13
			c-0.02,0.01-0.04,0.01-0.06,0.01s-0.04,0-0.06,0s-0.04,0-0.06,0c-0.02,0-0.04,0-0.06-0.01L40.6,0.5l-0.13,2.82
			c-0.02,0-0.05,0.01-0.07,0.01c-0.03,0-0.06,0-0.08,0c-0.03,0-0.06,0-0.09,0c-0.03,0-0.05,0-0.07-0.01L40.31,0.01z"/>
	</g>
	<g>
		<path class="st1" d="M89.19,31.43c0-1.58-0.32-3.02-0.96-4.33c-0.79-1.62-1.86-2.43-3.21-2.43c-0.89,0-1.61,0.35-2.17,1.04
			C82.28,26.42,82,27.24,82,28.2c0,0.74-0.07,1.27-0.22,1.58c-0.23,0.46-0.66,0.7-1.29,0.7h-0.21v-0.02H57.56
			c-0.88-0.1-1.32-0.76-1.32-1.98V17.35c0-0.46-0.06-0.7-0.18-0.7c-0.1,0-0.3,0.12-0.59,0.33l-2.38,1.79
			c0.22,3.51,0.33,6.84,0.33,10.01c0,3.97,1.16,5.95,3.48,5.95h23.39c1.1-0.03,1.96-0.91,2.6-2.65c0.84,2.2,2.07,3.31,3.67,3.31
			c0.89,0,1.59-0.44,2.06-1.33C89,33.34,89.19,32.47,89.19,31.43 M87.08,32.28c-0.93,0-1.67-0.74-2.22-2.23
			c-0.28-0.75-0.42-1.42-0.42-2.02c0-0.86,0.29-1.28,0.87-1.28c0.68,0,1.29,0.66,1.84,1.98c0.41,0.98,0.61,1.81,0.61,2.47
			C87.77,31.91,87.54,32.28,87.08,32.28"/>
		<path class="st1" d="M94.5,25.06c0.12,0.12,0.25,0.12,0.36-0.01l1.64-1.73c0.12-0.12,0.12-0.24,0.01-0.36l-1.68-1.72
			c-0.14-0.15-0.28-0.15-0.41,0l-1.52,1.65c-0.16,0.16-0.17,0.32-0.04,0.46L94.5,25.06z"/>
		<path class="st1" d="M128.56,26.27c-0.36-1.21-0.9-2.13-1.61-2.74c-0.14-0.12-0.26-0.1-0.37,0.07l-1.87,3.07
			c1.56,1.52,2.34,2.53,2.34,3c0,0.54-0.87,0.81-2.6,0.81h-0.09v-0.02H98.79c-0.68-0.12-1.65-0.95-2.88-2.49
			c-0.18-0.22-0.31-0.34-0.39-0.34c-0.08,0-0.19,0.12-0.33,0.34l-1.99,3.15c2.36,1.82,3.55,3.21,3.55,4.15
			c0,1.13-1.28,2.47-3.84,4.03c-0.99,0.6-2.19,1.21-3.6,1.8c-0.71,0.29-1.06,0.6-1.06,0.93c0,0.39,0.82,0.69,2.47,0.88
			c1.22,0.15,2.22,0.21,2.98,0.18c0.41-0.01,0.7-0.07,0.88-0.18c0.15-0.08,0.37-0.3,0.67-0.64c1.88-2.16,2.8-4.76,2.76-7.8
			c0.16,0.17,0.36,0.26,0.59,0.26h26.01c1.47,0,2.6-0.73,3.4-2.18c0.63-1.15,0.95-2.44,0.95-3.87
			C128.94,27.92,128.82,27.13,128.56,26.27"/>
		<path class="st1" d="M119.58,37.34c-0.13-0.14-0.26-0.14-0.39-0.01l-1.44,1.53l-1.44-1.53c-0.13-0.14-0.27-0.14-0.4,0l-1.41,1.54
			c-0.15,0.16-0.16,0.3-0.03,0.43l1.55,1.59c0.11,0.11,0.22,0.11,0.33,0l1.47-1.56l1.47,1.56c0.06,0.06,0.12,0.1,0.17,0.1
			c0.05,0,0.11-0.03,0.17-0.1l1.52-1.62c0.11-0.12,0.12-0.23,0.01-0.33L119.58,37.34z"/>
		<path class="st1" d="M136.35,28.06c-0.22-0.2-0.39-0.31-0.51-0.31c-0.13,0-0.26,0.1-0.38,0.31l-1.9,3.07
			c2.37,1.82,3.55,3.21,3.55,4.15c0,1.12-1.28,2.47-3.84,4.03c-0.99,0.6-2.19,1.2-3.61,1.8c-0.71,0.3-1.06,0.61-1.06,0.93
			c0,0.39,0.83,0.68,2.48,0.88c1.15,0.14,2.15,0.2,2.98,0.17c0.4-0.01,0.69-0.06,0.85-0.15c0.17-0.09,0.4-0.31,0.69-0.65
			c1.97-2.26,2.95-5,2.95-8.24c0-1.31-0.26-2.57-0.79-3.79C137.35,29.29,136.87,28.56,136.35,28.06"/>
		<path class="st1" d="M182.57,17.04c0-0.31-0.12-0.43-0.35-0.38c-0.04,0.01-0.08,0.02-0.13,0.05l-12.14,4.43
			c-0.13,0.05-0.34,0.53-0.63,1.42c-0.28,0.91-0.43,1.47-0.43,1.7c0,0.05,0.01,0.09,0.03,0.13c2.23,3.46,3.35,4.87,3.35,5.26
			c0,0.53-1.12,0.8-3.36,0.81v-0.01h-22.72c-0.88-0.1-1.32-0.76-1.32-1.98V17.34c0-0.46-0.07-0.7-0.18-0.7
			c-0.1,0-0.29,0.12-0.59,0.33l-2.38,1.79c0.22,3.51,0.33,6.84,0.33,10.01c0,3.97,1.16,5.95,3.48,5.95h23.77
			c1.6,0,2.85-0.62,3.74-1.86c0.78-1.08,1.17-1.91,1.17-3.51c0-1.11-0.32-2.27-0.96-3.47c-0.62-1.14-1.05-1.92-1.31-2.34l10.64-3.91
			V17.04z"/>
	</g>
</g>
<g>
	<path class="st0" d="M-100.61,25.77c-11.94,0-21.66-9.72-21.66-21.66s9.72-21.66,21.66-21.66v9.04c-6.96,0-12.62,5.66-12.62,12.62
		c0,6.96,5.66,12.62,12.62,12.62c6.96,0,12.62-5.66,12.62-12.62h9.04C-78.95,16.06-88.67,25.77-100.61,25.77"/>
	<g>
		<path class="st1" d="M-83.63-17.24h-0.9c0-0.02-0.01-0.04-0.01-0.07c0-0.03,0-0.05,0-0.08c0-0.02,0-0.05,0-0.07
			c0-0.03,0-0.05,0.01-0.07h2.11c0,0.02,0,0.04,0.01,0.06c0,0.02,0,0.05,0,0.07c0,0.02,0,0.05,0,0.08c0,0.03,0,0.05-0.01,0.07h-0.9
			v3.05c-0.02,0-0.05,0.01-0.07,0.01c-0.03,0-0.06,0-0.08,0c-0.03,0-0.06,0-0.09,0c-0.03,0-0.05,0-0.07-0.01V-17.24z"/>
		<path class="st1" d="M-81.76-17.53c0.02,0,0.05-0.01,0.09-0.01c0.04,0,0.08,0,0.11,0c0.03,0,0.07,0,0.11,0
			c0.04,0,0.07,0,0.09,0.01l0.93,2.22l0.92-2.22c0.02,0,0.05-0.01,0.09-0.01s0.08,0,0.11,0c0.03,0,0.07,0,0.11,0
			c0.04,0,0.07,0,0.09,0.01l0.16,3.33c-0.02,0-0.05,0.01-0.07,0.01c-0.03,0-0.06,0-0.08,0c-0.03,0-0.06,0-0.09,0
			c-0.03,0-0.05,0-0.07-0.01l-0.12-2.84l-0.92,2.15c-0.02,0.01-0.04,0.01-0.06,0.01s-0.04,0-0.06,0s-0.04,0-0.06,0
			c-0.02,0-0.04,0-0.06-0.01l-0.91-2.15l-0.13,2.84c-0.02,0-0.05,0.01-0.07,0.01c-0.03,0-0.06,0-0.08,0c-0.03,0-0.06,0-0.09,0
			c-0.03,0-0.05,0-0.07-0.01L-81.76-17.53z"/>
	</g>
	<g>
		<path class="st1" d="M-129.28,49c0-1.58-0.32-3.03-0.96-4.33c-0.79-1.62-1.86-2.43-3.21-2.43c-0.89,0-1.62,0.35-2.18,1.05
			c-0.56,0.7-0.84,1.52-0.84,2.48c0,0.74-0.07,1.27-0.22,1.58c-0.23,0.47-0.66,0.7-1.29,0.7h-0.21v-0.02h-22.75
			c-0.88-0.1-1.33-0.76-1.33-1.98V34.89c0-0.47-0.06-0.7-0.18-0.7c-0.1,0-0.3,0.12-0.59,0.33l-2.38,1.79
			c0.22,3.51,0.33,6.85,0.33,10.02c0,3.97,1.16,5.96,3.48,5.96h23.42c1.1-0.03,1.97-0.91,2.6-2.65c0.84,2.21,2.07,3.31,3.68,3.31
			c0.9,0,1.59-0.44,2.06-1.33C-129.47,50.91-129.28,50.03-129.28,49 M-131.39,49.84c-0.93,0-1.67-0.74-2.22-2.24
			c-0.28-0.75-0.42-1.42-0.42-2.02c0-0.86,0.29-1.28,0.87-1.28c0.68,0,1.29,0.66,1.84,1.98c0.41,0.98,0.61,1.81,0.61,2.47
			C-130.7,49.48-130.92,49.84-131.39,49.84"/>
		<path class="st1" d="M-123.96,42.62c0.12,0.12,0.25,0.12,0.36-0.01l1.64-1.73c0.12-0.12,0.12-0.24,0.01-0.36l-1.68-1.72
			c-0.14-0.15-0.28-0.15-0.41,0l-1.52,1.65c-0.16,0.16-0.18,0.32-0.04,0.46L-123.96,42.62z"/>
		<path class="st1" d="M-89.86,43.83c-0.36-1.21-0.9-2.13-1.62-2.75c-0.14-0.12-0.26-0.1-0.37,0.07l-1.87,3.07
			c1.56,1.52,2.34,2.53,2.34,3c0,0.54-0.87,0.81-2.6,0.81h-0.09v-0.02h-25.59c-0.68-0.12-1.65-0.95-2.88-2.49
			c-0.18-0.22-0.31-0.34-0.39-0.34c-0.08,0-0.19,0.12-0.33,0.34l-2,3.15c2.37,1.83,3.55,3.21,3.55,4.16c0,1.13-1.28,2.47-3.85,4.03
			c-0.99,0.6-2.19,1.21-3.6,1.8c-0.71,0.29-1.06,0.6-1.06,0.93c0,0.39,0.82,0.69,2.48,0.88c1.22,0.15,2.22,0.21,2.98,0.18
			c0.41-0.01,0.7-0.07,0.88-0.18c0.15-0.08,0.37-0.3,0.67-0.64c1.88-2.16,2.8-4.76,2.77-7.81c0.16,0.17,0.36,0.26,0.59,0.26h26.03
			c1.47,0,2.61-0.73,3.4-2.18c0.63-1.15,0.95-2.44,0.95-3.88C-89.48,45.48-89.6,44.68-89.86,43.83"/>
		<path class="st1" d="M-98.85,54.91c-0.13-0.14-0.26-0.14-0.39-0.01l-1.44,1.53l-1.44-1.53c-0.13-0.14-0.27-0.14-0.4,0l-1.41,1.54
			c-0.15,0.16-0.16,0.3-0.03,0.43l1.55,1.59c0.11,0.11,0.22,0.11,0.33,0l1.47-1.56l1.47,1.56c0.06,0.07,0.12,0.1,0.17,0.1
			s0.11-0.03,0.17-0.1l1.52-1.62c0.11-0.12,0.12-0.23,0.01-0.33L-98.85,54.91z"/>
		<path class="st1" d="M-82.06,45.62c-0.22-0.21-0.39-0.31-0.51-0.31c-0.13,0-0.26,0.1-0.38,0.31l-1.9,3.07
			c2.37,1.82,3.56,3.21,3.56,4.16c0,1.13-1.28,2.47-3.85,4.03c-0.99,0.6-2.19,1.21-3.61,1.8c-0.71,0.3-1.06,0.61-1.06,0.93
			c0,0.39,0.83,0.68,2.48,0.88c1.15,0.14,2.15,0.2,2.98,0.17c0.4-0.01,0.69-0.06,0.85-0.15c0.17-0.09,0.4-0.31,0.7-0.65
			c1.97-2.26,2.95-5.01,2.95-8.25c0-1.31-0.26-2.58-0.79-3.79C-81.07,46.85-81.54,46.12-82.06,45.62"/>
		<path class="st1" d="M-35.8,34.59c0-0.31-0.12-0.43-0.35-0.38c-0.04,0.01-0.08,0.02-0.13,0.05l-12.15,4.44
			c-0.13,0.05-0.34,0.53-0.63,1.42c-0.28,0.91-0.43,1.47-0.43,1.7c0,0.05,0.01,0.09,0.03,0.13c2.23,3.46,3.35,4.88,3.35,5.27
			c0,0.53-1.12,0.8-3.36,0.81v-0.01h-22.75c-0.88-0.1-1.33-0.76-1.33-1.98V34.89c0-0.46-0.07-0.7-0.18-0.7
			c-0.1,0-0.29,0.12-0.59,0.33l-2.38,1.79c0.22,3.51,0.33,6.85,0.33,10.02c0,3.97,1.16,5.96,3.48,5.96h23.8
			c1.6,0,2.85-0.62,3.74-1.86c0.78-1.08,1.17-1.92,1.17-3.51c0-1.11-0.32-2.27-0.96-3.48c-0.62-1.14-1.06-1.92-1.31-2.35l10.65-3.92
			V34.59z"/>
	</g>
</g>
<g>
	<path class="st0" d="M-375.12,41.92c-11.04,0-20.02-8.98-20.02-20.01s8.98-20.02,20.02-20.02v8.36c-6.43,0-11.66,5.23-11.66,11.66
		c0,6.43,5.23,11.66,11.66,11.66c6.43,0,11.66-5.23,11.66-11.66h8.36C-355.1,32.94-364.08,41.92-375.12,41.92"/>
	<text transform="matrix(1 0 0 1 -361.0215 5.3824)" class="st1" style="font-family:'Aller-Light'; font-size:4.821px;">TM</text>
	<g>
		<path class="st1" d="M-324.61,31.27c-0.79,0.38-2.68,0.85-5.06,0.85c-6.85,0-10.38-4.29-10.38-9.94c0-6.77,4.82-10.5,10.82-10.5
			c2.32,0,4.09,0.44,4.88,0.88l-0.94,3.53c-0.88-0.38-2.15-0.74-3.77-0.74c-3.53,0-6.3,2.15-6.3,6.56c0,3.97,2.35,6.47,6.33,6.47
			c1.38,0,2.85-0.27,3.77-0.65L-324.61,31.27z"/>
		<path class="st1" d="M-316.56,11.97v7.62h7.38v-7.62h4.47V31.8h-4.47v-8.3h-7.38v8.3h-4.47V11.97H-316.56z"/>
		<path class="st1" d="M-295.59,26.71L-297,31.8h-4.62l6.03-19.83h5.88l6.18,19.83h-4.85l-1.53-5.09H-295.59z M-290.56,23.36
			l-1.24-4.21c-0.35-1.18-0.71-2.65-1-3.82h-0.06c-0.29,1.18-0.59,2.68-0.91,3.82l-1.18,4.21H-290.56z"/>
		<path class="st1" d="M-280.33,12.24c1.44-0.24,3.56-0.41,5.97-0.41c2.94,0,5,0.44,6.41,1.56c1.21,0.94,1.85,2.35,1.85,4.18
			c0,2.5-1.79,4.23-3.5,4.85v0.09c1.38,0.56,2.15,1.85,2.65,3.68c0.62,2.27,1.21,4.85,1.59,5.62h-4.59
			c-0.29-0.59-0.79-2.18-1.35-4.62c-0.56-2.5-1.41-3.15-3.27-3.18h-1.32v7.79h-4.44V12.24z M-275.88,20.77h1.76
			c2.24,0,3.56-1.12,3.56-2.85c0-1.79-1.24-2.74-3.29-2.74c-1.09,0-1.71,0.06-2.03,0.15V20.77z"/>
		<path class="st1" d="M-257.8,11.97V31.8h-4.47V11.97H-257.8z"/>
		<path class="st1" d="M-253.18,27.18c1.18,0.62,3.06,1.23,4.97,1.23c2.06,0,3.15-0.85,3.15-2.15c0-1.23-0.94-1.94-3.32-2.77
			c-3.29-1.18-5.47-3-5.47-5.88c0-3.38,2.85-5.94,7.5-5.94c2.26,0,3.88,0.44,5.06,1l-1,3.59c-0.77-0.38-2.21-0.94-4.12-0.94
			c-1.94,0-2.88,0.91-2.88,1.91c0,1.27,1.09,1.82,3.68,2.79c3.5,1.3,5.12,3.12,5.12,5.91c0,3.32-2.53,6.15-7.97,6.15
			c-2.26,0-4.5-0.62-5.62-1.24L-253.18,27.18z"/>
		<path class="st1" d="M-220.09,24.21c-0.09-2.38-0.18-5.27-0.18-8.15h-0.06c-0.65,2.53-1.47,5.35-2.24,7.68l-2.41,7.74h-3.5
			l-2.12-7.65c-0.65-2.35-1.29-5.18-1.79-7.77h-0.06c-0.09,2.68-0.21,5.74-0.32,8.21l-0.38,7.53h-4.15l1.27-19.83h5.97l1.94,6.62
			c0.65,2.29,1.23,4.76,1.68,7.09h0.12c0.53-2.29,1.21-4.91,1.88-7.12l2.09-6.59h5.88l1.06,19.83h-4.35L-220.09,24.21z"/>
		<path class="st1" d="M-206.86,26.71l-1.41,5.09h-4.62l6.03-19.83h5.88l6.18,19.83h-4.85l-1.53-5.09H-206.86z M-201.83,23.36
			l-1.24-4.21c-0.35-1.18-0.71-2.65-1-3.82h-0.06c-0.29,1.18-0.59,2.68-0.91,3.82l-1.18,4.21H-201.83z"/>
	</g>
</g>
<g>
	<path class="st0" d="M-512.11,25.87c-11.24,0-20.38-9.14-20.38-20.38s9.14-20.38,20.38-20.38v8.51c-6.55,0-11.87,5.33-11.87,11.87
		c0,6.55,5.33,11.87,11.87,11.87c6.55,0,11.87-5.33,11.87-11.87h8.51C-491.73,16.72-500.87,25.87-512.11,25.87"/>
	<text transform="matrix(1 0 0 1 -497.9075 -11.2463)" class="st1" style="font-family:'Aller-Light'; font-size:5.0338px;">TM</text>
	<g>
		<path class="st1" d="M-560.24,58.01c-0.67,0.32-2.25,0.72-4.26,0.72c-5.77,0-8.74-3.62-8.74-8.37c0-5.7,4.06-8.84,9.12-8.84
			c1.96,0,3.44,0.37,4.11,0.74l-0.79,2.97c-0.74-0.32-1.81-0.62-3.17-0.62c-2.97,0-5.3,1.81-5.3,5.52c0,3.34,1.98,5.45,5.33,5.45
			c1.16,0,2.4-0.22,3.17-0.55L-560.24,58.01z"/>
		<path class="st1" d="M-553.46,41.76v6.42h6.22v-6.42h3.76v16.7h-3.76v-6.99h-6.22v6.99h-3.77v-16.7H-553.46z"/>
		<path class="st1" d="M-535.8,54.17l-1.19,4.29h-3.89l5.08-16.7h4.95l5.2,16.7h-4.09l-1.29-4.29H-535.8z M-531.56,51.35l-1.04-3.54
			c-0.3-0.99-0.59-2.23-0.84-3.22h-0.05c-0.25,0.99-0.5,2.25-0.77,3.22l-0.99,3.54H-531.56z"/>
		<path class="st1" d="M-522.94,41.98c1.21-0.2,3-0.35,5.03-0.35c2.48,0,4.21,0.37,5.4,1.31c1.02,0.79,1.56,1.98,1.56,3.52
			c0,2.11-1.51,3.57-2.95,4.09v0.07c1.16,0.47,1.81,1.56,2.23,3.1c0.52,1.91,1.02,4.09,1.34,4.73h-3.86
			c-0.25-0.5-0.67-1.83-1.14-3.89c-0.47-2.11-1.19-2.65-2.75-2.67h-1.11v6.56h-3.74V41.98z M-519.2,49.17h1.49c1.88,0,3-0.94,3-2.4
			c0-1.51-1.04-2.3-2.77-2.3c-0.92,0-1.44,0.05-1.71,0.12V49.17z"/>
		<path class="st1" d="M-503.97,41.76v16.7h-3.77v-16.7H-503.97z"/>
		<path class="st1" d="M-500.08,54.57c0.99,0.52,2.58,1.04,4.19,1.04c1.73,0,2.65-0.72,2.65-1.81c0-1.04-0.79-1.63-2.8-2.33
			c-2.77-0.99-4.61-2.53-4.61-4.95c0-2.85,2.4-5,6.32-5c1.91,0,3.27,0.37,4.26,0.84l-0.84,3.02c-0.64-0.32-1.86-0.79-3.47-0.79
			c-1.64,0-2.43,0.77-2.43,1.61c0,1.06,0.92,1.54,3.1,2.35c2.95,1.09,4.31,2.63,4.31,4.98c0,2.8-2.13,5.18-6.71,5.18
			c-1.91,0-3.79-0.52-4.73-1.04L-500.08,54.57z"/>
		<path class="st1" d="M-472.22,52.07c-0.07-2.01-0.15-4.43-0.15-6.86h-0.05c-0.55,2.13-1.24,4.51-1.88,6.47l-2.03,6.52h-2.95
			l-1.78-6.44c-0.55-1.98-1.09-4.36-1.51-6.54h-0.05c-0.07,2.25-0.17,4.83-0.27,6.91l-0.32,6.34h-3.49l1.06-16.7h5.03l1.63,5.57
			c0.55,1.93,1.04,4.01,1.41,5.97h0.1c0.45-1.93,1.02-4.14,1.59-6l1.76-5.55h4.96l0.89,16.7h-3.67L-472.22,52.07z"/>
		<path class="st1" d="M-461.07,54.17l-1.19,4.29h-3.89l5.08-16.7h4.95l5.2,16.7H-455l-1.29-4.29H-461.07z M-456.83,51.35
			l-1.04-3.54c-0.3-0.99-0.59-2.23-0.84-3.22h-0.05c-0.25,0.99-0.5,2.25-0.77,3.22l-0.99,3.54H-456.83z"/>
	</g>
</g>
</svg>
